<?xml version="1.0" encoding="UTF-8"?>
<svg version="1.1" xmlns="http://www.w3.org/2000/svg" width="230" height="229">
<path d="M0 0 C1.275905 -0.0049649 2.55181 -0.00992981 3.86637878 -0.01504517 C7.34813852 -0.02808445 10.82987904 -0.03459762 14.31165934 -0.03905582 C16.49413078 -0.04200074 18.67659715 -0.04610815 20.85906601 -0.05056 C27.70839794 -0.06421358 34.55771806 -0.07389027 41.40706265 -0.07776189 C49.27468864 -0.08223537 57.14214027 -0.09975916 65.00971329 -0.12876248 C71.11705276 -0.15048391 77.22434356 -0.16047174 83.33172119 -0.16180301 C86.96729064 -0.16284372 90.60269575 -0.16859292 94.23822403 -0.18662262 C98.30345229 -0.20639335 102.36832242 -0.20177302 106.43359375 -0.1953125 C107.61433975 -0.20452728 108.79508575 -0.21374207 110.01161194 -0.22323608 C126.70172801 -0.14074357 141.61365831 3.93822246 153.85107422 15.68457031 C166.13923501 29.18663953 168.24968731 44.52764234 168.26611328 62.05615234 C168.27107819 63.33205734 168.27604309 64.60796234 168.28115845 65.92253113 C168.29419773 69.40429086 168.3007109 72.88603138 168.30516911 76.36781168 C168.30811402 78.55028313 168.31222143 80.73274949 168.31667328 82.91521835 C168.33032686 89.76455029 168.34000355 96.6138704 168.34387517 103.46321499 C168.34834865 111.33084098 168.36587245 119.19829261 168.39487576 127.06586564 C168.41659719 133.17320511 168.42658502 139.2804959 168.42791629 145.38787353 C168.42895701 149.02344299 168.43470621 152.65884809 168.4527359 156.29437637 C168.47250663 160.35960464 168.4678863 164.42447476 168.46142578 168.48974609 C168.47064056 169.6704921 168.47985535 170.8512381 168.48934937 172.06776428 C168.40685685 188.75788035 164.32789082 203.66981065 152.58154297 215.90722656 C140.82071768 226.61069058 127.96002262 229.77168251 112.37890625 229.69458008 C110.94173301 229.70165608 109.50456722 229.71040808 108.06741333 229.72068787 C104.19941434 229.74300551 100.33182793 229.74028368 96.46378946 229.7313664 C93.21864065 229.72622022 89.97356693 229.73357838 86.72842586 229.74083847 C79.0643252 229.75778206 71.40042391 229.75432847 63.73632812 229.73754883 C55.86542719 229.72063771 47.99508132 229.7364605 40.12424099 229.76877171 C33.3331369 229.79558021 26.54220438 229.80271328 19.75105274 229.79425663 C15.70971467 229.78935947 11.66871005 229.79136651 7.6274147 229.81204414 C3.82346001 229.83057937 0.02029493 229.82422902 -3.78361893 229.79984474 C-5.82047571 229.79255719 -7.85737577 229.8095535 -9.89416504 229.82766724 C-24.97782495 229.67462977 -36.90135217 224.47767077 -47.91845703 214.29003906 C-60.20043333 201.3912823 -62.04028341 185.20019233 -62.05615234 168.26611328 C-62.06111725 166.99020828 -62.06608215 165.71430328 -62.07119751 164.3997345 C-62.08423679 160.91797477 -62.09074996 157.43623424 -62.09520817 153.95445395 C-62.09815308 151.7719825 -62.10226049 149.58951613 -62.10671234 147.40704727 C-62.12036592 140.55771534 -62.13004261 133.70839522 -62.13391423 126.85905063 C-62.13838771 118.99142464 -62.15591151 111.12397301 -62.18491483 103.25639999 C-62.20663625 97.14906052 -62.21662408 91.04176973 -62.21795535 84.93439209 C-62.21899607 81.29882264 -62.22474527 77.66341753 -62.24277496 74.02788925 C-62.26254569 69.96266099 -62.25792536 65.89779086 -62.25146484 61.83251953 C-62.26067963 60.65177353 -62.26989441 59.47102753 -62.27938843 58.25450134 C-62.19689591 41.56438528 -58.11792989 26.65245497 -46.37158203 14.41503906 C-32.86951281 2.12687827 -17.52851001 0.01642597 0 0 Z " fill="#0148DA" transform="translate(61.89501953125,-0.1611328125)"/>
<path d="M0 0 C6.71838802 -0.44710813 11.3686327 1.80600492 17.04296875 5.2265625 C17.97109375 5.7834375 18.89921875 6.3403125 19.85546875 6.9140625 C25.93399106 13.33992894 27.5951805 20.07819449 27.70703125 28.7578125 C25.74841994 38.98867628 19.252021 45.76005713 12.0625 52.87109375 C11.08396334 53.85300935 10.10616899 54.83566521 9.1290741 55.8190155 C7.09039543 57.8650148 5.04308303 59.90182916 2.98901367 61.93237305 C0.37757846 64.51532358 -2.2107532 67.12008528 -4.79296398 69.73221302 C-6.80440261 71.76185573 -8.8277684 73.77927281 -10.85476112 75.7933712 C-12.27368023 77.20740757 -13.68266967 78.63138596 -15.09135437 80.05561829 C-23.59995982 88.412531 -31.65968529 93.31873701 -43.70703125 93.4765625 C-59.51242952 93.28062781 -68.44802898 83.08140806 -79.08203125 72.2890625 C-79.943125 71.42732422 -80.80421875 70.56558594 -81.69140625 69.67773438 C-87.95703125 63.36735491 -87.95703125 63.36735491 -87.95703125 62.2265625 C-87.14621094 62.22398437 -86.33539063 62.22140625 -85.5 62.21875 C-83.83904297 62.16074219 -83.83904297 62.16074219 -82.14453125 62.1015625 C-81.06558594 62.07835937 -79.98664063 62.05515625 -78.875 62.03125 C-67.55956031 59.70724145 -59.93583012 51.85751527 -52.19140625 43.84375 C-51.10422635 42.73957321 -50.01567706 41.63674325 -48.92584229 40.53518677 C-46.08359049 37.65716719 -43.25547745 34.76570715 -40.43164062 31.86962891 C-35.90250268 27.22636489 -31.35852907 22.59786885 -26.80194855 17.98154068 C-25.22460767 16.37751315 -23.65759069 14.76389775 -22.09124756 13.1491394 C-15.31521194 6.22343805 -9.87222543 1.14289237 0 0 Z " fill="#07D88D" transform="translate(150.95703125,83.7734375)"/>
<path d="M0 0 C8.95028127 4.79479354 15.11575778 10.35035407 18.734375 20 C20.80584362 27.77857604 20.46170807 36.02160564 16.9831543 43.33027649 C12.10839611 51.69414787 3.96703388 58.58366824 -2.8125 65.42578125 C-3.66626221 66.2876152 -4.52002441 67.14944916 -5.3996582 68.03739929 C-7.18978488 69.84124158 -8.98138703 71.64362073 -10.77441406 73.44458008 C-12.59595261 75.27770311 -14.41299863 77.11530092 -16.22558594 78.95727539 C-18.8697636 81.64418579 -21.52700415 84.31753897 -24.1875 86.98828125 C-24.98776611 87.80605545 -25.78803223 88.62382965 -26.61254883 89.46638489 C-34.51099596 97.3348652 -43.10486176 103.01422298 -54.56469727 103.25537109 C-70.27825164 103.21674991 -79.52262294 97.14628709 -90.484375 86.2265625 C-91.41869354 85.30222916 -91.41869354 85.30222916 -92.37188721 84.35922241 C-93.67516471 83.06598774 -94.97582189 81.77010737 -96.27392578 80.47167969 C-98.24875038 78.50124684 -100.23905844 76.54740148 -102.23046875 74.59375 C-103.50358237 73.3265028 -104.77575067 72.05830506 -106.046875 70.7890625 C-106.92977203 69.92772202 -106.92977203 69.92772202 -107.83050537 69.04898071 C-114.83939451 61.96231121 -117.90955038 53.87790447 -118.875 44.0625 C-118.5276288 34.72004295 -114.22824138 27.5732955 -107.8828125 20.9765625 C-99.73463136 13.79013388 -90.93620159 13.29203584 -80.5 13.875 C-72.27427483 15.02837595 -66.39103474 20.31628004 -60.5 25.875 C-59.84 26.865 -59.18 27.855 -58.5 28.875 C-54.2077997 28.4205465 -52.01076741 25.68747195 -49.2109375 22.703125 C-48.17606413 21.63514248 -47.14089812 20.56744347 -46.10546875 19.5 C-44.49492042 17.82163398 -42.888712 16.13946745 -41.28857422 14.45117188 C-29.59155854 2.15533287 -17.57126889 -5.76448742 0 0 Z M-44.49609375 25.94921875 C-45.89337754 27.36678995 -47.29067753 28.78434557 -48.68888187 30.2010088 C-52.08361965 33.64088887 -55.47399617 37.08483862 -58.84790039 40.54516602 C-60.75749349 42.50302345 -62.6738321 44.45379616 -64.59791565 46.39741516 C-66.39354824 48.21158275 -68.17966255 50.03524184 -69.95420837 51.87004089 C-77.12082605 59.06787218 -85.11792282 65.52269727 -95.6875 65.75 C-97.34845703 65.80800781 -97.34845703 65.80800781 -99.04296875 65.8671875 C-99.85378906 65.86976563 -100.66460937 65.87234375 -101.5 65.875 C-97.07661849 71.16097541 -92.43302081 76.12487132 -87.5625 81 C-86.88509766 81.68964844 -86.20769531 82.37929687 -85.50976562 83.08984375 C-77.28326872 91.34000268 -69.65500324 96.9205512 -57.6875 97.3125 C-48.43623588 97.0557947 -41.60494524 95.11350772 -34.74145508 88.76733398 C-33.87219391 87.96512421 -33.00293274 87.16291443 -32.10733032 86.33639526 C-25.56647111 80.16163491 -19.1675058 73.84777931 -12.78491211 67.51000977 C-11.04967181 65.79140585 -9.30907302 64.0781959 -7.56323242 62.37036133 C-5.0128622 59.87498175 -2.47954542 57.36333926 0.05078125 54.84765625 C0.82480789 54.09629898 1.59883453 53.34494171 2.39631653 52.57081604 C8.18800314 46.75645981 12.59706511 40.59150694 14.1640625 32.40625 C14.0561544 24.03258143 12.78140476 17.10266328 6.6328125 11.03125 C0.66231771 6.29202456 -5.45445314 3.2523608 -13.18359375 3.60546875 C-26.90517135 5.20207727 -35.33247683 16.56203181 -44.49609375 25.94921875 Z " fill="#E7F7FB" transform="translate(164.5,80.125)"/>
<path d="M0 0 C6.24649743 3.47132161 10.52193887 8.01423572 12.63671875 14.91796875 C14.27698223 23.3304092 12.57208639 30.16644933 7.84375 37.19140625 C2.09083027 42.81648332 -2.42739629 44.20141058 -10.53125 44.44140625 C-17.74750642 44.21947773 -21.44446306 43.4162873 -26.640625 38.29296875 C-32.5950326 31.79982904 -33.49491771 26.12037694 -33.33984375 17.390625 C-32.69631311 11.40917709 -30.38791207 8.0828824 -25.9609375 4.1640625 C-18.37803566 -1.78193987 -9.29038775 -3.31275669 0 0 Z " fill="#0348D9" transform="translate(116.96875,48.05859375)"/>
<path d="M0 0 C5.69826465 3.53292408 10.49260529 8.11208885 15.125 12.9375 C13.72561183 16.09616892 12.07356141 18.24573489 9.640625 20.6875 C8.95226562 21.3784375 8.26390625 22.069375 7.5546875 22.78125 C6.83539063 23.4928125 6.11609375 24.204375 5.375 24.9375 C4.31925781 26.00484375 4.31925781 26.00484375 3.2421875 27.09375 C-5.91832218 36.22020574 -13.87804454 40.16033539 -26.921875 40.53125 C-29.875 39.9375 -29.875 39.9375 -32.1875 37.57421875 C-36.31701374 31.12185353 -36.93881606 24.2372382 -35.4453125 16.796875 C-33.26127638 9.94816915 -28.43805628 4.17067164 -22.3125 0.4375 C-15.79997024 -2.42445155 -6.67269472 -2.4543245 0 0 Z " fill="#0449D8" transform="translate(87.875,101.0625)"/>
<path d="M0 0 C6.24649743 3.47132161 10.52193887 8.01423572 12.63671875 14.91796875 C14.27698223 23.3304092 12.57208639 30.16644933 7.84375 37.19140625 C2.09083027 42.81648332 -2.42739629 44.20141058 -10.53125 44.44140625 C-17.74750642 44.21947773 -21.44446306 43.4162873 -26.640625 38.29296875 C-32.5950326 31.79982904 -33.49491771 26.12037694 -33.33984375 17.390625 C-32.69631311 11.40917709 -30.38791207 8.0828824 -25.9609375 4.1640625 C-18.37803566 -1.78193987 -9.29038775 -3.31275669 0 0 Z M-22.96875 8.94140625 C-26.53846499 13.25560725 -28.80155162 17.22293258 -28.38671875 22.9296875 C-26.9751733 29.72357448 -23.55116324 34.02183951 -17.96875 37.94140625 C-12.74954895 39.68113993 -8.42484457 39.41031806 -3.28125 37.75390625 C0.98355656 35.42033285 3.83565215 32.93406933 6.34375 28.75390625 C7.74180208 23.03460231 8.00704945 17.89300516 5.34375 12.56640625 C1.87801804 8.63233214 -1.41652146 5.15644208 -6.796875 4.703125 C-15.69878729 4.33992596 -15.69878729 4.33992596 -22.96875 8.94140625 Z " fill="#E9F5FD" transform="translate(116.96875,48.05859375)"/>
<path d="M0 0 C1.32 0 2.64 0 4 0 C4 0.66 4 1.32 4 2 C5.98 2 7.96 2 10 2 C10.495 2.99 10.495 2.99 11 4 C10.55301758 4.30043213 10.10603516 4.60086426 9.64550781 4.91040039 C2.35947351 10.06722029 -3.61897629 16.55806016 -9.73828125 23.00561523 C-11.17393368 24.51347644 -12.62458069 26.00550208 -14.078125 27.49609375 C-15.35284668 28.82918579 -15.35284668 28.82918579 -16.65332031 30.18920898 C-19 32 -19 32 -21.16308594 31.91821289 C-24.00014161 30.50006212 -25.81654335 28.28501277 -28 26 C-31.72539176 22.50583946 -35.01404152 19.51089651 -40 18 C-38.68 17.67 -37.36 17.34 -36 17 C-35.67 15.68 -35.34 14.36 -35 13 C-36.65 13.33 -38.3 13.66 -40 14 C-40.33 11.03 -40.66 8.06 -41 5 C-40.46890625 5.40992187 -39.9378125 5.81984375 -39.390625 6.2421875 C-38.68421875 6.78101562 -37.9778125 7.31984375 -37.25 7.875 C-36.55390625 8.40867187 -35.8578125 8.94234375 -35.140625 9.4921875 C-28.55545864 14.1306441 -21.78216078 13.63142927 -14 13 C-8.34354263 11.7093229 -5.82060831 9.06441057 -2.75 4.25 C-2.31171875 3.45078125 -1.8734375 2.6515625 -1.421875 1.828125 C-0.95265625 1.22484375 -0.4834375 0.6215625 0 0 Z " fill="#0E4ED5" transform="translate(128,78)"/>
<path d="M0 0 C4.01018103 1.38952413 6.90032723 3.26698294 10.1875 5.9375 C11.04730469 6.62714844 11.90710938 7.31679687 12.79296875 8.02734375 C15 10 15 10 17 13 C17.99 13.66 18.98 14.32 20 15 C18.68 15 17.36 15 16 15 C15.505 17.475 15.505 17.475 15 20 C14.360625 19.34 13.72125 18.68 13.0625 18 C10.60244365 15.56091004 8.10263326 13.16813034 5.5625 10.8125 C4.84191406 10.13832031 4.12132813 9.46414062 3.37890625 8.76953125 C-2.03281574 4.74406317 -7.41561325 4.73267453 -13.875 4.875 C-14.65875 4.88402344 -15.4425 4.89304687 -16.25 4.90234375 C-18.16680055 4.92571937 -20.08344191 4.96158347 -22 5 C-22 4.34 -22 3.68 -22 3 C-11.605 2.505 -11.605 2.505 -1 2 C-0.67 1.34 -0.34 0.68 0 0 Z " fill="#E9F3FC" transform="translate(89,96)"/>
<path d="M0 0 C5.24762086 0.491416 7.18008647 2.76232622 10.41796875 6.65625 C12.80566131 10.19357232 13.99829425 13.87869633 15 18 C14.34 17.67 13.68 17.34 13 17 C13 16.01 13 15.02 13 14 C12.34 14 11.68 14 11 14 C11 19.28 11 24.56 11 30 C10.67 30 10.34 30 10 30 C9.98582031 29.32195312 9.97164062 28.64390625 9.95703125 27.9453125 C9.59026822 20.78847719 8.34977187 14.83032803 4 9 C1.18240904 6.6124624 -1.77756299 4.78621977 -5 3 C-5.99 2.34 -6.98 1.68 -8 1 C-6.865625 1.020625 -5.73125 1.04125 -4.5625 1.0625 C-1.18424326 1.41577477 -1.18424326 1.41577477 0 0 Z " fill="#DAF7F6" transform="translate(168,84)"/>
<path d="M0 0 C1.21429688 -0.01417969 2.42859375 -0.02835937 3.6796875 -0.04296875 C6.96844421 0.17702745 9.17865948 0.77034382 12.125 2.1875 C11.795 3.1775 11.465 4.1675 11.125 5.1875 C4.195 5.1875 -2.735 5.1875 -9.875 5.1875 C-9.875 6.1775 -9.875 7.1675 -9.875 8.1875 C-11.195 8.5175 -12.515 8.8475 -13.875 9.1875 C-13.27612592 5.83380514 -12.15117653 3.72631228 -9.875 1.1875 C-6.41768736 0.03506245 -3.64240787 0.01925163 0 0 Z " fill="#F8FCFD" transform="translate(76.875,93.8125)"/>
<path d="M0 0 C0.66 0.33 1.32 0.66 2 1 C1.67 1.99 1.34 2.98 1 4 C1.48984375 3.66226563 1.9796875 3.32453125 2.484375 2.9765625 C6.09372237 1.57541833 9.47455089 2.04147976 13.25 2.375 C13.99507812 2.43171875 14.74015625 2.4884375 15.5078125 2.546875 C17.33935108 2.68776258 19.16981352 2.84251884 21 3 C21.495 4.485 21.495 4.485 22 6 C21.47148438 5.84144531 20.94296875 5.68289062 20.3984375 5.51953125 C14.12950275 4.16160239 7.32802754 3.97893529 1.4375 6.5625 C-1.51318004 9.51318004 -3.13699236 12.27398473 -5 16 C-5.99 15.34 -6.98 14.68 -8 14 C-8.99 14.99 -9.98 15.98 -11 17 C-10.37746764 10.46341022 -7.71743626 6.29388859 -2.75 2.125 C-1.38875 1.073125 -1.38875 1.073125 0 0 Z " fill="#DCECFD" transform="translate(95,49)"/>
<path d="M0 0 C-0.33 1.32 -0.66 2.64 -1 4 C-0.01 4 0.98 4 2 4 C2 3.34 2 2.68 2 2 C7.61 2 13.22 2 19 2 C19 2.66 19 3.32 19 4 C18.31035156 3.96519531 17.62070313 3.93039063 16.91015625 3.89453125 C7.0749611 3.61121287 1.04014765 4.88779401 -6.375 11.5625 C-7.18710938 12.34753906 -7.99921875 13.13257812 -8.8359375 13.94140625 C-11 16 -11 16 -14 18 C-13.6875 16.0625 -13.6875 16.0625 -13 14 C-12.01 13.67 -11.02 13.34 -10 13 C-9.67 12.01 -9.34 11.02 -9 10 C-8.34 10 -7.68 10 -7 10 C-6.67 9.01 -6.34 8.02 -6 7 C-5.01 7 -4.02 7 -3 7 C-3 6.34 -3 5.68 -3 5 C-5.31 5.66 -7.62 6.32 -10 7 C-3.18421053 0 -3.18421053 0 0 0 Z " fill="#DAF8F9" transform="translate(141,81)"/>
<path d="M0 0 C1.98 0 3.96 0 6 0 C4.41332422 3.90285767 1.86649519 6.33520982 -1.125 9.25 C-2.03507813 10.14203125 -2.94515625 11.0340625 -3.8828125 11.953125 C-4.58148438 12.62859375 -5.28015625 13.3040625 -6 14 C-6.99 13.67 -7.98 13.34 -9 13 C-8.34 11.35 -7.68 9.7 -7 8 C-6.34 8 -5.68 8 -5 8 C-5 7.34 -5 6.68 -5 6 C-4.360625 5.7525 -3.72125 5.505 -3.0625 5.25 C-0.81258459 4.18437567 -0.81258459 4.18437567 -0.25 1.875 C-0.1675 1.25625 -0.085 0.6375 0 0 Z " fill="#F4FAFE" transform="translate(140,159)"/>
<path d="M0 0 C4 3 8 6 12 9 C11.525625 9.433125 11.05125 9.86625 10.5625 10.3125 C8.76313043 12.02309613 8.76313043 12.02309613 8 15 C9.32 15.66 10.64 16.32 12 17 C8.80389448 17 7.58282374 16.45328458 4.8125 15 C4.09707031 14.62875 3.38164063 14.2575 2.64453125 13.875 C2.10183594 13.58625 1.55914062 13.2975 1 13 C2.32 12.67 3.64 12.34 5 12 C5.33 10.68 5.66 9.36 6 8 C4.35 8.33 2.7 8.66 1 9 C0.67 6.03 0.34 3.06 0 0 Z " fill="#1850CD" transform="translate(87,83)"/>
<path d="M0 0 C1.65 0.66 3.3 1.32 5 2 C4.67 3.98 4.34 5.96 4 8 C2.865625 7.505 1.73125 7.01 0.5625 6.5 C-6.68716294 4.01739838 -14.44528576 4.76581253 -22 5 C-22 4.34 -22 3.68 -22 3 C-11.605 2.505 -11.605 2.505 -1 2 C-0.67 1.34 -0.34 0.68 0 0 Z " fill="#CDE4F8" transform="translate(89,96)"/>
<path d="M0 0 C0.33 0.66 0.66 1.32 1 2 C0.34 3.32 -0.32 4.64 -1 6 C-5.29 6 -9.58 6 -14 6 C-14.33 4.68 -14.66 3.36 -15 2 C-14.16855469 1.93941406 -13.33710937 1.87882812 -12.48046875 1.81640625 C-10.85044922 1.69072266 -10.85044922 1.69072266 -9.1875 1.5625 C-8.10855469 1.48128906 -7.02960938 1.40007812 -5.91796875 1.31640625 C-2.94010095 1.09787539 -2.94010095 1.09787539 0 0 Z " fill="#F6FBFE" transform="translate(115,86)"/>
<path d="M0 0 C1.27617188 0.02320313 2.55234375 0.04640625 3.8671875 0.0703125 C5.78917969 0.09738281 5.78917969 0.09738281 7.75 0.125 C9.23113281 0.15980469 9.23113281 0.15980469 10.7421875 0.1953125 C10.4121875 1.1853125 10.0821875 2.1753125 9.7421875 3.1953125 C2.9921875 3.3203125 2.9921875 3.3203125 0.7421875 2.1953125 C0.7421875 3.5153125 0.7421875 4.8353125 0.7421875 6.1953125 C-0.5778125 6.5253125 -1.8978125 6.8553125 -3.2578125 7.1953125 C-3.9178125 5.5453125 -4.5778125 3.8953125 -5.2578125 2.1953125 C-3.2578125 0.1953125 -3.2578125 0.1953125 0 0 Z " fill="#F9FDFA" transform="translate(61.2578125,141.8046875)"/>
<path d="M0 0 C1.21429688 -0.00515625 2.42859375 -0.0103125 3.6796875 -0.015625 C6.94944211 0.23646492 9.19019555 0.84397201 12.125 2.25 C11.795 3.24 11.465 4.23 11.125 5.25 C5.845 5.25 0.565 5.25 -4.875 5.25 C-4.875 4.92 -4.875 4.59 -4.875 4.25 C-1.575 3.59 1.725 2.93 5.125 2.25 C0.175 2.25 -4.775 2.25 -9.875 2.25 C-6.2190606 -0.18729293 -4.34799212 -0.01838474 0 0 Z " fill="#EAF7FD" transform="translate(76.875,93.75)"/>
<path d="M0 0 C0.95638118 2.58222918 1.14112843 3.66129178 0.0625 6.25 C-2.15279417 11.98370255 -0.92905814 18.07725438 0 24 C0 24.99 0 25.98 0 27 C-3.63378337 23.36621663 -4.15185588 19.09731813 -4.3125 14.125 C-4.22690342 9.41005491 -3.50655558 3.50655558 0 0 Z " fill="#1A55CE" transform="translate(56,111)"/>
<path d="M0 0 C0 0.66 0 1.32 0 2 C-1.72526042 2.68359375 -3.45052083 3.3671875 -5.17578125 4.05078125 C-7.3849197 5.08404547 -7.3849197 5.08404547 -10 8 C-11.98 5.69 -13.96 3.38 -16 1 C-13.89594609 0.83191581 -11.79175242 0.66558052 -9.6875 0.5 C-8.51574219 0.4071875 -7.34398438 0.314375 -6.13671875 0.21875 C-4.094806 0.07635011 -2.0468721 0 0 0 Z " fill="#26D494" transform="translate(79,145)"/>
<path d="M0 0 C1.24546405 2.49092811 0.7767578 3.41080733 0 6 C-0.66 6 -1.32 6 -2 6 C-2 6.66 -2 7.32 -2 8 C-2.598125 8.061875 -3.19625 8.12375 -3.8125 8.1875 C-6.24615816 8.8236636 -6.24615816 8.8236636 -7.375 11.4375 C-9.46686958 14.73621742 -11.29350529 15.09396796 -15 16 C-10.30233025 10.33870569 -5.25276628 5.14771096 0 0 Z " fill="#2854CF" transform="translate(157,149)"/>
<path d="M0 0 C0 4.05277953 -0.5090689 6.18807548 -2.625 9.6875 C-5.66437598 12.6468924 -7.84527861 12.76030454 -12 13 C-8.19524578 8.43969176 -4.25030379 4.14910608 0 0 Z " fill="#1B50D0" transform="translate(176,130)"/>
<path d="M0 0 C2.475 0.99 2.475 0.99 5 2 C-1.15034169 9.48291572 -1.15034169 9.48291572 -5 12 C-6.32 11.34 -7.64 10.68 -9 10 C-8.34 9.67 -7.68 9.34 -7 9 C-6.34 9.33 -5.68 9.66 -5 10 C-5 9.34 -5 8.68 -5 8 C-4.34 8 -3.68 8 -3 8 C-2.67 6.35 -2.34 4.7 -2 3 C-1.34 3 -0.68 3 0 3 C0 2.01 0 1.02 0 0 Z " fill="#F0F8FC" transform="translate(167,132)"/>
<path d="M0 0 C1 3 1 3 1 5 C1.66 5.33 2.32 5.66 3 6 C0.69 8.31 -1.62 10.62 -4 13 C-4.33 12.01 -4.66 11.02 -5 10 C-4.34 10 -3.68 10 -3 10 C-3.33 9.01 -3.66 8.02 -4 7 C-5.98 7.99 -5.98 7.99 -8 9 C-7.04270084 7.87411986 -6.08412105 6.7493285 -5.125 5.625 C-4.59132813 4.99851562 -4.05765625 4.37203125 -3.5078125 3.7265625 C-2.38567993 2.44163349 -1.20628025 1.20628025 0 0 Z " fill="#E0F8F7" transform="translate(124,94)"/>
<path d="M0 0 C0.66 0.33 1.32 0.66 2 1 C0.625 3 0.625 3 -1 5 C-1.66 5 -2.32 5 -3 5 C-4.35911051 11.62566373 -4.70137504 18.40717171 -3 25 C-6.28413919 20.85912885 -7.39907211 17.56825301 -7.359375 12.19921875 C-6.56950461 7.36555537 -3.39276303 3.39276303 0 0 Z " fill="#285BC6" transform="translate(96,55)"/>
<path d="M0 0 C5.68565971 0.08785788 8.62463716 0.46676152 12.75 4.375 C14.625 6.625 14.625 6.625 15.75 8.375 C12.78 7.88 12.78 7.88 9.75 7.375 C9.75 6.055 9.75 4.735 9.75 3.375 C3.71445452 2.68239642 -2.17406438 2.26248267 -8.25 2.375 C-5.50637988 -0.36862012 -3.82800386 0.04369867 0 0 Z " fill="#164EC0" transform="translate(106.25,52.625)"/>
<path d="M0 0 C0.86625 0.4640625 0.86625 0.4640625 1.75 0.9375 C3.84294184 1.92583364 5.74535275 2.5168613 8 3 C8 3.66 8 4.32 8 5 C12.62 4.67 17.24 4.34 22 4 C21 6 21 6 19.4375 6.625 C12.09260291 7.75498417 8.05564685 7.23895279 2 3 C1.34 2.01 0.68 1.02 0 0 Z " fill="#2355C4" transform="translate(93,80)"/>
<path d="M0 0 C-6.54158399 3.65111665 -12.63879629 3.29887594 -20 3 C-20.33 2.34 -20.66 1.68 -21 1 C-20.10796875 0.93941406 -19.2159375 0.87882813 -18.296875 0.81640625 C-16.54117188 0.69072266 -16.54117188 0.69072266 -14.75 0.5625 C-13.58984375 0.48128906 -12.4296875 0.40007812 -11.234375 0.31640625 C-1.86666667 -0.6 -1.86666667 -0.6 0 0 Z " fill="#1D53C1" transform="translate(78,138)"/>
<path d="M0 0 C1.65 0.33 3.3 0.66 5 1 C6.09658936 4.28976808 5.79953138 5.71303767 5 9 C4.01 8.34 3.02 7.68 2 7 C2 6.34 2 5.68 2 5 C0.68 4.34 -0.64 3.68 -2 3 C-1.34 2.67 -0.68 2.34 0 2 C0 1.34 0 0.68 0 0 Z " fill="#0148D2" transform="translate(122,48)"/>
<path d="M0 0 C0.66 0 1.32 0 2 0 C2.80859375 1.671875 2.80859375 1.671875 3 4 C0.91015625 6.578125 0.91015625 6.578125 -1.9375 9.25 C-2.87464844 10.14203125 -3.81179687 11.0340625 -4.77734375 11.953125 C-5.51082031 12.62859375 -6.24429688 13.3040625 -7 14 C-7.66 13.01 -8.32 12.02 -9 11 C-8.34 11 -7.68 11 -7 11 C-7 10.34 -7 9.68 -7 9 C-6.34 9 -5.68 9 -5 9 C-4.67 8.01 -4.34 7.02 -4 6 C-3.01 6 -2.02 6 -1 6 C-1 5.34 -1 4.68 -1 4 C-0.34 4 0.32 4 1 4 C0.67 2.68 0.34 1.36 0 0 Z " fill="#DAFEF2" transform="translate(116,104)"/>
<path d="M0 0 C0.33 0.66 0.66 1.32 1 2 C0.2884375 2.61875 0.2884375 2.61875 -0.4375 3.25 C-2.16266518 5.182185 -2.56584875 6.48192275 -3 9 C-3.66 9 -4.32 9 -5 9 C-5 9.66 -5 10.32 -5 11 C-6.98 11.33 -8.96 11.66 -11 12 C-7.49102731 7.81576108 -3.91939465 3.80411834 0 0 Z " fill="#CDFEF3" transform="translate(151,147)"/>
<path d="M0 0 C0.33 0 0.66 0 1 0 C1.44041451 5.37305699 1.44041451 5.37305699 1 8 C-1.5 10 -1.5 10 -4 11 C-3.56534471 6.47958496 -3.21201178 3.3458456 0 0 Z " fill="#F9FEFE" transform="translate(128,66)"/>
<path d="M0 0 C0.66 0.33 1.32 0.66 2 1 C1.34 1.66 0.68 2.32 0 3 C1.65 3.33 3.3 3.66 5 4 C2.37801226 6.15377564 0.35595828 7.40072174 -3 8 C-3 6.68 -3 5.36 -3 4 C-3.66 3.34 -4.32 2.68 -5 2 C-2.625 0.9375 -2.625 0.9375 0 0 Z " fill="#CFF2F4" transform="translate(123,173)"/>
<path d="M0 0 C0.33 0.99 0.66 1.98 1 3 C0.01 3.495 0.01 3.495 -1 4 C-1.65213292 6.02463255 -1.65213292 6.02463255 -2 8 C-2.66 8 -3.32 8 -4 8 C-4 8.66 -4 9.32 -4 10 C-5.98 10.33 -7.96 10.66 -10 11 C-6.79239749 7.19364503 -3.59253891 3.45436433 0 0 Z " fill="#CDFEF2" transform="translate(166,132)"/>
<path d="M0 0 C1.09054688 0.02320312 2.18109375 0.04640625 3.3046875 0.0703125 C4.40039062 0.08835937 5.49609375 0.10640625 6.625 0.125 C7.46804687 0.14820312 8.31109375 0.17140625 9.1796875 0.1953125 C9.1796875 1.8453125 9.1796875 3.4953125 9.1796875 5.1953125 C8.5196875 5.1953125 7.8596875 5.1953125 7.1796875 5.1953125 C7.1796875 4.2053125 7.1796875 3.2153125 7.1796875 2.1953125 C6.6846875 2.3809375 6.1896875 2.5665625 5.6796875 2.7578125 C2.02887061 3.39670546 -1.15995974 2.74436541 -4.8203125 2.1953125 C-2.8203125 0.1953125 -2.8203125 0.1953125 0 0 Z " fill="#014AC9" transform="translate(104.8203125,92.8046875)"/>
<path d="M0 0 C0.33 1.32 0.66 2.64 1 4 C-3.75 8 -3.75 8 -6 8 C-6.33 8.99 -6.66 9.98 -7 11 C-7.99 10.67 -8.98 10.34 -10 10 C-6.7 6.7 -3.4 3.4 0 0 Z " fill="#24CF92" transform="translate(134,92)"/>
<path d="M0 0 C2.92879371 0.62759865 5.36095629 1.58622659 8 3 C5.69 3 3.38 3 1 3 C1 3.66 1 4.32 1 5 C1.99 5 2.98 5 4 5 C4 5.66 4 6.32 4 7 C-0.75 6.25 -0.75 6.25 -3 4 C-2.34 3.67 -1.68 3.34 -1 3 C-0.67 2.01 -0.34 1.02 0 0 Z " fill="#CFF0F6" transform="translate(92,174)"/>
<path d="M0 0 C1.32 0.33 2.64 0.66 4 1 C2.75160501 2.105981 1.50120766 3.20970201 0.25 4.3125 C-0.44609375 4.92738281 -1.1421875 5.54226562 -1.859375 6.17578125 C-3.85114506 7.87314734 -5.88898915 9.45477809 -8 11 C-7.6875 9.0625 -7.6875 9.0625 -7 7 C-6.01 6.67 -5.02 6.34 -4 6 C-3.67 5.01 -3.34 4.02 -3 3 C-2.34 3 -1.68 3 -1 3 C-0.67 2.01 -0.34 1.02 0 0 Z " fill="#CEFEF1" transform="translate(135,88)"/>
<path d="M0 0 C2.31 0 4.62 0 7 0 C6.34 1.98 5.68 3.96 5 6 C5.66 6 6.32 6 7 6 C6.67 6.99 6.34 7.98 6 9 C3.43004926 7.71502463 3.09565537 6.50087627 1.875 3.9375 C1.52179688 3.20402344 1.16859375 2.47054687 0.8046875 1.71484375 C0.53914062 1.14894531 0.27359375 0.58304687 0 0 Z " fill="#1250CD" transform="translate(176,88)"/>
<path d="M0 0 C0.66 0.66 1.32 1.32 2 2 C1.01 2.99 0.02 3.98 -1 5 C-0.67 5.99 -0.34 6.98 0 8 C-1.32 8.33 -2.64 8.66 -4 9 C-4 7.68 -4 6.36 -4 5 C-5.65 5 -7.3 5 -9 5 C-8.443125 4.731875 -7.88625 4.46375 -7.3125 4.1875 C-4.80287477 2.89877353 -2.40665764 1.47073522 0 0 Z " fill="#D8E8FD" transform="translate(119,82)"/>
<path d="M0 0 C-0.33 1.32 -0.66 2.64 -1 4 C-2.98 4 -4.96 4 -7 4 C-7 3.34 -7 2.68 -7 2 C-7.66 1.67 -8.32 1.34 -9 1 C-3.375 -1.125 -3.375 -1.125 0 0 Z " fill="#F8FFFE" transform="translate(121,177)"/>
<path d="M0 0 C0.66 0 1.32 0 2 0 C2.66 1.65 3.32 3.3 4 5 C3.01 5.66 2.02 6.32 1 7 C0.01 6.01 -0.98 5.02 -2 4 C-1.34 2.68 -0.68 1.36 0 0 Z " fill="#0E4CDC" transform="translate(90,120)"/>
<path d="M0 0 C0.66 0.33 1.32 0.66 2 1 C1.25 3.9375 1.25 3.9375 0 7 C-2.125 7.875 -2.125 7.875 -4 8 C-4 7.34 -4 6.68 -4 6 C-4.66 5.67 -5.32 5.34 -6 5 C-4.02 3.35 -2.04 1.7 0 0 Z " fill="#0B4FC8" transform="translate(125,84)"/>
<path d="M0 0 C0.99 0.33 1.98 0.66 3 1 C0.36 3.64 -2.28 6.28 -5 9 C-5.33 8.01 -5.66 7.02 -6 6 C-4.75 3.8125 -4.75 3.8125 -3 2 C-2.01 2 -1.02 2 0 2 C0 1.34 0 0.68 0 0 Z " fill="#D1FEF2" transform="translate(98,125)"/>
<path d="M0 0 C0.33 1.32 0.66 2.64 1 4 C-2 6 -2 6 -4 6 C-4 6.66 -4 7.32 -4 8 C-5.32 8.33 -6.64 8.66 -8 9 C-7.04270084 7.87411986 -6.08412105 6.7493285 -5.125 5.625 C-4.59132812 4.99851563 -4.05765625 4.37203125 -3.5078125 3.7265625 C-2.38567993 2.44163349 -1.20628025 1.20628025 0 0 Z " fill="#C7FDF1" transform="translate(139,159)"/>
<path d="M0 0 C3.3 0 6.6 0 10 0 C8.68 0.33 7.36 0.66 6 1 C5.67 2.65 5.34 4.3 5 6 C3.31237149 4.3545622 1.6459651 2.68711423 0 1 C0 0.67 0 0.34 0 0 Z " fill="#D0E4FA" transform="translate(99,110)"/>
<path d="M0 0 C0 3.66842255 -0.79029126 5.10451959 -3 8 C-5.6875 8.8125 -5.6875 8.8125 -8 9 C-7.04270084 7.87411986 -6.08412105 6.7493285 -5.125 5.625 C-4.59132812 4.99851563 -4.05765625 4.37203125 -3.5078125 3.7265625 C-2.38567993 2.44163349 -1.20628025 1.20628025 0 0 Z " fill="#2A58C5" transform="translate(141,165)"/>
<path d="M0 0 C2 1 4 2 6 3 C5.67 3.99 5.34 4.98 5 6 C2.525 5.01 2.525 5.01 0 4 C0 2.68 0 1.36 0 0 Z " fill="#0546E5" transform="translate(66,161)"/>
<path d="M0 0 C-0.625 1.875 -0.625 1.875 -2 4 C-5.125 5.25 -5.125 5.25 -8 6 C-3.375 0 -3.375 0 0 0 Z " fill="#1B4FCA" transform="translate(150,159)"/>
<path d="M0 0 C5.35048061 0.37328935 7.50912907 1.9957657 11 6 C7.27566618 4.7874262 3.62197194 3.49140021 0 2 C0 1.34 0 0.68 0 0 Z " fill="#194BC6" transform="translate(84,101)"/>
<path d="M0 0 C1.98 0.66 3.96 1.32 6 2 C6 2.99 6 3.98 6 5 C4.68 5.33 3.36 5.66 2 6 C1.34 4.02 0.68 2.04 0 0 Z " fill="#E6F6FE" transform="translate(162,80)"/>
<path d="M0 0 C1.32 1.65 2.64 3.3 4 5 C1.36 5 -1.28 5 -4 5 C-3.6875 3.0625 -3.6875 3.0625 -3 1 C-2.01 0.67 -1.02 0.34 0 0 Z " fill="#DEEDFD" transform="translate(91,78)"/>
<path d="M0 0 C2 3 2 3 1.625 5.6875 C1.41875 6.450625 1.2125 7.21375 1 8 C0.01 8 -0.98 8 -2 8 C-1.34 7.67 -0.68 7.34 0 7 C0 6.01 0 5.02 0 4 C-0.99 3.67 -1.98 3.34 -3 3 C-2.01 2.01 -1.02 1.02 0 0 Z " fill="#DDF7FA" transform="translate(102,116)"/>
<path d="M0 0 C0.66 0 1.32 0 2 0 C1.67 2.31 1.34 4.62 1 7 C-0.32 7 -1.64 7 -3 7 C-2.690625 6.401875 -2.38125 5.80375 -2.0625 5.1875 C-0.89790296 2.91043228 -0.89790296 2.91043228 0 0 Z " fill="#F3FCFF" transform="translate(120,81)"/>
<path d="M0 0 C0 1.65 0 3.3 0 5 C-1.65 5 -3.3 5 -5 5 C-5.33 4.34 -5.66 3.68 -6 3 C-1.125 0 -1.125 0 0 0 Z " fill="#F5FEFA" transform="translate(128,172)"/>
<path d="M0 0 C0 0.99 0 1.98 0 3 C-1.98 3 -3.96 3 -6 3 C-6 2.01 -6 1.02 -6 0 C-3 -1 -3 -1 0 0 Z " fill="#F7FBFB" transform="translate(87,136)"/>
<path d="M0 0 C2.31 0 4.62 0 7 0 C7 0.66 7 1.32 7 2 C7.66 2.66 8.32 3.32 9 4 C8.01 4.495 8.01 4.495 7 5 C4.5249829 3.88568235 2.32116581 2.41849022 0 1 C0 0.67 0 0.34 0 0 Z " fill="#265ACB" transform="translate(164,80)"/>
<path d="M0 0 C4.42857143 5.14285714 4.42857143 5.14285714 5 9 C4.01 8.34 3.02 7.68 2 7 C2 6.34 2 5.68 2 5 C0.68 4.34 -0.64 3.68 -2 3 C-1.34 2.67 -0.68 2.34 0 2 C0 1.34 0 0.68 0 0 Z " fill="#1F53CD" transform="translate(122,48)"/>
<path d="M0 0 C0.33 0.66 0.66 1.32 1 2 C-0.32 3.32 -1.64 4.64 -3 6 C-4.32 5.34 -5.64 4.68 -7 4 C-4.69 2.68 -2.38 1.36 0 0 Z " fill="#1853CE" transform="translate(129,176)"/>
<path d="M0 0 C1.0326802 2.78823655 1.04509293 3.8677274 0.0625 6.75 C-0.288125 7.4925 -0.63875 8.235 -1 9 C-1.66 9 -2.32 9 -3 9 C-2.5020163 5.26512223 -2.12508244 3.18762365 0 0 Z " fill="#2050C1" transform="translate(56,111)"/>
<path d="M0 0 C0.66 0.33 1.32 0.66 2 1 C0.63016497 4.16115776 0.0109362 4.9927092 -3 7 C-3.33 6.01 -3.66 5.02 -4 4 C-3.34 4 -2.68 4 -2 4 C-2 3.34 -2 2.68 -2 2 C-1.34 2 -0.68 2 0 2 C0 1.34 0 0.68 0 0 Z " fill="#1E4FCE" transform="translate(125,89)"/>
<path d="M0 0 C0.99 0 1.98 0 3 0 C1.95125002 2.62187494 1.35068687 3.79371361 -1.125 5.25 C-1.74375 5.4975 -2.3625 5.745 -3 6 C-3 5.01 -3 4.02 -3 3 C-2.01 3 -1.02 3 0 3 C0 2.01 0 1.02 0 0 Z " fill="#21CF90" transform="translate(129,165)"/>
<path d="M0 0 C2.97 0.99 5.94 1.98 9 3 C9 3.66 9 4.32 9 5 C4.89198233 3.81323934 3.10551666 3.10551666 0 0 Z " fill="#D3E8FD" transform="translate(92,87)"/>
<path d="M0 0 C0.66 0 1.32 0 2 0 C2 0.66 2 1.32 2 2 C4.64 2 7.28 2 10 2 C10 2.33 10 2.66 10 3 C6.37 3.33 2.74 3.66 -1 4 C-0.67 2.68 -0.34 1.36 0 0 Z " fill="#215ACC" transform="translate(100,44)"/>
</svg>
