<?xml version="1.0" standalone="no"?>
<!DOCTYPE svg PUBLIC "-//W3C//DTD SVG 20010904//EN"
 "http://www.w3.org/TR/2001/REC-SVG-20010904/DTD/svg10.dtd">
<svg version="1.0" xmlns="http://www.w3.org/2000/svg"
 width="42.000000pt" height="17.000000pt" viewBox="0 0 42.000000 17.000000"
 preserveAspectRatio="xMidYMid meet">

<g transform="translate(0.000000,17.000000) scale(0.100000,-0.100000)"
fill="#000000" stroke="none">
<path d="M12 158 c-20 -20 -15 -75 8 -91 17 -12 19 -19 11 -40 -9 -22 -7 -24
10 -20 11 3 28 16 38 29 18 23 23 24 168 24 103 0 153 4 161 12 16 16 16 70 0
86 -17 17 -379 17 -396 0z m393 -43 l0 -40 -157 -3 c-154 -2 -156 -3 -172 -27
-21 -32 -38 -32 -30 -1 4 18 1 25 -15 29 -16 4 -21 13 -21 39 0 19 3 38 7 42
4 3 93 5 197 4 l191 -3 0 -40z"/>
</g>
</svg>
